<svg id="e4b31197-9a07-4b8b-8e27-189b41a7d05f" data-name="Layer 1" xmlns="http://www.w3.org/2000/svg" xmlns:xlink="http://www.w3.org/1999/xlink" width="18" height="18" viewBox="0 0 18 18">
  <defs>
    <linearGradient id="e5c1e13d-edd2-4c3b-b499-b5671711e932" x1="8.2" y1="16.4" x2="8.2" gradientUnits="userSpaceOnUse">
      <stop offset="0" stop-color="#006abb"/>
      <stop offset="1" stop-color="#0074cd"/>
    </linearGradient>
    <linearGradient id="ffe02121-bf18-4df7-899b-42e3495f4876" x1="-79.332" y1="71.087" x2="-79.332" y2="68.069" gradientTransform="translate(-74.653 78.578) rotate(180)" gradientUnits="userSpaceOnUse">
      <stop offset="0" stop-color="#27b2d7"/>
      <stop offset="0.79" stop-color="#2fcbed"/>
      <stop offset="1" stop-color="#32d4f5"/>
    </linearGradient>
    <linearGradient id="f04d1f28-7809-43f5-8fbc-b0a451658ba8" x1="13.625" y1="2" x2="13.625" y2="10.75" gradientTransform="matrix(1, 0, 0, -1, 0, 20)" xlink:href="#ffe02121-bf18-4df7-899b-42e3495f4876"/>
  </defs>
  <title>18x</title>
  <rect width="16.4" height="16.4" fill="url(#e5c1e13d-edd2-4c3b-b499-b5671711e932)"/>
  <polygon points="4.179 14.304 4.179 8.966 5.179 8.966 5.179 13.286 10.162 13.203 10.18 14.203 4.179 14.304" fill="#9cebff"/>
  <path d="M10.905,5V1.208h-1v4.6h2.741V5ZM2.95,3.136a2.041,2.041,0,0,1-.568-.346.49.49,0,0,1-.134-.356A.383.383,0,0,1,2.416,2.1a.762.762,0,0,1,.468-.133A1.8,1.8,0,0,1,4,2.289V1.331a2.88,2.88,0,0,0-1.114-.179,1.833,1.833,0,0,0-1.215.379,1.205,1.205,0,0,0-.468.992c0,.568.357,1.014,1.114,1.348a3.243,3.243,0,0,1,.691.4.463.463,0,0,1,.167.356A.424.424,0,0,1,3,4.974a.9.9,0,0,1-.5.122,1.846,1.846,0,0,1-1.215-.468V5.665a2.431,2.431,0,0,0,1.192.267,2.094,2.094,0,0,0,1.315-.368A1.2,1.2,0,0,0,4.154,4.55a1.169,1.169,0,0,0-.279-.779A2.684,2.684,0,0,0,2.95,3.136ZM8.788,4.907a2.44,2.44,0,0,0,0-2.585,2.007,2.007,0,0,0-.78-.835A2.216,2.216,0,0,0,6.894,1.2a2.356,2.356,0,0,0-1.2.3,2.072,2.072,0,0,0-.813.824,2.744,2.744,0,0,0-.29,1.27,2.517,2.517,0,0,0,.267,1.114,1.974,1.974,0,0,0,.769.825,2.3,2.3,0,0,0,1.114.334L7.7,6.979H9.045L7.674,5.754A1.994,1.994,0,0,0,8.788,4.907ZM7.674,4.628a1.045,1.045,0,0,1-.847.39,1.018,1.018,0,0,1-.846-.4A1.689,1.689,0,0,1,5.658,3.5a1.7,1.7,0,0,1,.323-1.114,1.113,1.113,0,0,1,.869-.412.966.966,0,0,1,.835.412,1.8,1.8,0,0,1,.3,1.114A1.623,1.623,0,0,1,7.674,4.628Z" fill="#fff"/>
  <ellipse cx="4.679" cy="9" rx="1.5" ry="1.509" fill="url(#ffe02121-bf18-4df7-899b-42e3495f4876)"/>
  <g>
    <path d="M13.625,18A4.375,4.375,0,1,0,9.25,13.625,4.375,4.375,0,0,0,13.625,18Z" fill="url(#f04d1f28-7809-43f5-8fbc-b0a451658ba8)"/>
    <path d="M16.581,12.439l-.451-.781-2.055,1.186V10.472h-.9v2.372L11.12,11.658l-.451.781,2.055,1.186-2.055,1.186.451.781,2.055-1.186v2.372h.9V14.406l2.055,1.186.451-.781-2.055-1.186Z" fill="#fff"/>
  </g>
</svg>
